<svg width="32" height="32" viewBox="0 0 32 32" fill="none" xmlns="http://www.w3.org/2000/svg">
<path d="M18.7501 0H15.8501V5.8H18.7501V0Z" fill="#00BE28"/>
<path d="M10.5501 1.41963L8.0387 2.86963L10.9387 7.89243L13.4501 6.44243L10.5501 1.41963Z" fill="#00BE28"/>
<path d="M4.1679 6.76106L2.7179 9.27246L7.7407 12.1725L9.1907 9.66106L4.1679 6.76106Z" fill="#00BE28"/>
<path d="M7.10005 14.5498H1.30005V17.4498H7.10005V14.5498Z" fill="#00BE28"/>
<path d="M7.7407 19.8515L2.7179 22.7515L4.1679 25.2629L9.1907 22.3629L7.7407 19.8515Z" fill="#00BE28"/>
<path d="M10.9592 24.1149L8.0592 29.1377L10.5706 30.5877L13.4706 25.5649L10.9592 24.1149Z" fill="#00BE28"/>
<path d="M18.7501 26.2002H15.8501V32.0002H18.7501V26.2002Z" fill="#00BE28"/>
<path d="M24.0327 1.42007L21.1327 6.44287L23.6441 7.89287L26.5441 2.87007L24.0327 1.42007Z" fill="#00BE28"/>
<path d="M17.5501 21.9498L11.7001 16.0998L13.7501 14.0498L17.5501 17.8498L28.6501 6.7998L30.7001 8.8498L17.5501 21.9498Z" fill="#00BE28"/>
</svg>
